A Young Man Who seeks revenge of his mothers death. He finds his grand-father, Heihachi Mishima, and pleas to be trained. When the Mishima leader announces a "King of Iron Fist" tournament. He finds out that his mother's killer, OGRE, will be participating in the tournament. He must fight against the worlds top competitors to achieve his goal with no interference

Genre:Action | Adventure | Drama | Fantasy | Sci-Fi
Language:English
IMDb:http://www.imdb.com/title/tt0411951/
Source:DVDR-RETAiL
Subtitles: ROMANA
............................................
General
Complete name : Tekken.2010.DVDRip.H264.FEEL-FREE
Format : MPEG-4
Format profile : Base Media
Codec ID : isom
File size : 1.09 GiB
Duration : 1h 27mn
Overall bit rate : 1 780 Kbps
............................................
Video
ID : 1
Format : AVC
Format/Info : Advanced Video Codec
Format profile : Baseline@L5.1
Format settings, CABAC : No
Format settings, ReFrames : 1 frame
Codec ID : avc1
Codec ID/Info : Advanced Video Coding
Duration : 1h 27mn
Bit rate mode : Variable
Bit rate : 1 539 Kbps
Width : 688 pixels
Height : 288 pixels
Display aspect ratio : 2.35:1
Frame rate mode : Constant
Frame rate : 25.000 fps
Resolution : 24 bits
Colorimetry : 4:2:0
Scan type : Progressive
Bits/(Pixel*Frame) : 0.311
Stream size : 963 MiB (86%)
............................................
Audio
ID : 2
Format : AAC
Format/Info : Advanced Audio Codec
Format version : Version 4
Format profile : LC
Format settings, SBR : No
Codec ID : 40
Duration : 1h 27mn
Bit rate mode : Variable
Bit rate : 236 Kbps
Channel(s) : 6 channels
Channel positions : Front: L C R, Rear: L R, LFE
Sampling rate : 48.0 KHz
Resolution : 16 bits
Stream size : 148 MiB (13%)